<svg xmlns="http://www.w3.org/2000/svg" xmlns:xlink="http://www.w3.org/1999/xlink" viewBox="0 0 50 50" aria-hidden="true" role="img" preserveAspectRatio="xMidYMid meet">
<defs>
<linearGradient id="linear0" gradientUnits="userSpaceOnUse" x1="2.1707" y1="13.4952" x2="0.311989" y2="8.08129" gradientTransform="matrix(2.932039,0,0,2.941176,0,0)">
<stop offset="0.1444" style="stop-color:rgb(94.901961%,91.372549%,7.45098%);stop-opacity:1;"/>
<stop offset="0.3037" style="stop-color:rgb(90.588235%,89.803922%,9.411765%);stop-opacity:1;"/>
<stop offset="0.5823" style="stop-color:rgb(79.215686%,85.882353%,14.901961%);stop-opacity:1;"/>
<stop offset="0.891" style="stop-color:rgb(63.921569%,80.392157%,22.352941%);stop-opacity:1;"/>
</linearGradient>
<linearGradient id="linear1" gradientUnits="userSpaceOnUse" x1="2.88386" y1="2.28584" x2="7.60262" y2="0.473823" gradientTransform="matrix(2.932039,0,0,2.941176,0,0)">
<stop offset="0.0592" style="stop-color:rgb(5.882353%,65.882353%,87.843137%);stop-opacity:1;"/>
<stop offset="0.5385" style="stop-color:rgb(0%,60%,97.647059%);stop-opacity:1;"/>
<stop offset="0.9234" style="stop-color:rgb(0.784314%,56.862745%,92.156863%);stop-opacity:1;"/>
</linearGradient>
<linearGradient id="linear2" gradientUnits="userSpaceOnUse" x1="7.42363" y1="14.4944" x2="13.0491" y2="13.2133" gradientTransform="matrix(2.932039,0,0,2.941176,0,0)">
<stop offset="0.1226" style="stop-color:rgb(63.921569%,80.392157%,22.352941%);stop-opacity:1;"/>
<stop offset="0.2846" style="stop-color:rgb(52.54902%,76.470588%,22.352941%);stop-opacity:1;"/>
<stop offset="0.8693" style="stop-color:rgb(12.941176%,62.745098%,21.960784%);stop-opacity:1;"/>
</linearGradient>
<linearGradient id="linear3" gradientUnits="userSpaceOnUse" x1="7.56102" y1="1.30945" x2="12.2382" y2="2.76364" gradientTransform="matrix(2.932039,0,0,2.941176,0,0)">
<stop offset="0.0566" style="stop-color:rgb(0.784314%,56.862745%,92.156863%);stop-opacity:1;"/>
<stop offset="0.79" style="stop-color:rgb(4.705882%,54.117647%,79.607843%);stop-opacity:1;"/>
</linearGradient>
<linearGradient id="linear4" gradientUnits="userSpaceOnUse" x1="2.54776" y1="13.7268" x2="7.57157" y2="15.6183" gradientTransform="matrix(2.932039,0,0,2.941176,0,0)">
<stop offset="0.1324" style="stop-color:rgb(94.901961%,91.372549%,7.45098%);stop-opacity:1;"/>
<stop offset="0.2977" style="stop-color:rgb(92.156863%,90.588235%,8.627451%);stop-opacity:1;"/>
<stop offset="0.5306" style="stop-color:rgb(85.098039%,87.843137%,12.156863%);stop-opacity:1;"/>
<stop offset="0.8023" style="stop-color:rgb(73.333333%,83.921569%,17.647059%);stop-opacity:1;"/>
<stop offset="0.9829" style="stop-color:rgb(63.921569%,80.392157%,22.352941%);stop-opacity:1;"/>
</linearGradient>
<linearGradient id="linear5" gradientUnits="userSpaceOnUse" x1="1.4415" y1="8.32718" x2="3.45094" y2="3.05983" gradientTransform="matrix(2.932039,0,0,2.941176,0,0)">
<stop offset="0.0698" style="stop-color:rgb(63.921569%,80.392157%,22.352941%);stop-opacity:1;"/>
<stop offset="0.2599" style="stop-color:rgb(50.588235%,77.254902%,37.254902%);stop-opacity:1;"/>
<stop offset="0.9216" style="stop-color:rgb(5.882353%,65.882353%,87.843137%);stop-opacity:1;"/>
</linearGradient>
</defs>
<g id="surface1">





<path style=" stroke:none;fill-rule:nonzero;fill:rgb(12.941176%,62.745098%,21.960784%);fill-opacity:1;" d="M 41.605469 9.546875 C 42.699219 10.976562 43.613281 12.542969 44.386719 14.203125 L 23.3125 29.925781 L 14.460938 24.300781 L 14.460938 17.570312 L 23.265625 23.148438 Z M 41.605469 9.546875 "/>
<path style=" stroke:none;fill-rule:nonzero;fill:url(#linear0);" d="M 5.472656 23.839844 C 5.472656 23.515625 5.472656 23.242188 5.519531 22.917969 L 0.183594 22.640625 C 0.183594 23.011719 0.136719 23.425781 0.136719 23.792969 C 0.136719 30.25 2.738281 36.105469 6.933594 40.347656 L 10.71875 36.519531 C 7.480469 33.292969 5.472656 28.820312 5.472656 23.839844 Z M 5.472656 23.839844 "/>
<path style=" stroke:none;fill-rule:nonzero;fill:url(#linear1);" d="M 23.265625 5.855469 C 23.585938 5.855469 23.859375 5.855469 24.179688 5.902344 L 24.453125 0.507812 C 24.085938 0.507812 23.675781 0.460938 23.3125 0.460938 C 16.925781 0.460938 11.132812 3.089844 6.933594 7.332031 L 10.71875 11.160156 C 13.914062 7.886719 18.382812 5.855469 23.265625 5.855469 Z M 23.265625 5.855469 "/>
<path style=" stroke:none;fill-rule:nonzero;fill:url(#linear2);" d="M 23.265625 41.824219 C 22.945312 41.824219 22.671875 41.824219 22.351562 41.777344 L 22.078125 47.171875 C 22.445312 47.171875 22.855469 47.21875 23.21875 47.21875 C 29.605469 47.21875 35.402344 44.589844 39.597656 40.347656 L 35.8125 36.519531 C 32.617188 39.839844 28.191406 41.824219 23.265625 41.824219 Z M 23.265625 41.824219 "/>
<path style=" stroke:none;fill-rule:nonzero;fill:url(#linear3);" d="M 33.300781 8.992188 L 37.816406 5.625 C 33.847656 2.398438 28.785156 0.414062 23.265625 0.414062 L 23.265625 5.808594 C 27.007812 5.855469 30.472656 7.007812 33.300781 8.992188 Z M 33.300781 8.992188 "/>
<path style=" stroke:none;fill-rule:nonzero;fill:rgb(12.941176%,62.745098%,21.960784%);fill-opacity:1;" d="M 46.441406 23.839844 C 46.441406 22.410156 46.304688 21.027344 46.074219 19.644531 L 41.101562 23.378906 C 41.101562 23.515625 41.101562 23.703125 41.101562 23.839844 C 41.101562 29.144531 38.820312 33.894531 35.21875 37.167969 L 38.820312 41.179688 C 43.476562 36.9375 46.441406 30.710938 46.441406 23.839844 Z M 46.441406 23.839844 "/>
<path style=" stroke:none;fill-rule:nonzero;fill:url(#linear4);" d="M 23.265625 41.824219 C 18.019531 41.824219 13.320312 39.519531 10.082031 35.875 L 6.113281 39.519531 C 10.355469 44.269531 16.46875 47.21875 23.265625 47.21875 Z M 23.265625 41.824219 "/>
<path style=" stroke:none;fill-rule:nonzero;fill:url(#linear5);" d="M 11.359375 10.511719 L 7.753906 6.5 C 3.054688 10.789062 0.136719 16.96875 0.136719 23.839844 L 5.472656 23.839844 C 5.472656 18.582031 7.753906 13.789062 11.359375 10.511719 Z M 11.359375 10.511719 "/>
</g>
</svg>